<?xml version="1.0" standalone="no"?>
<!DOCTYPE svg PUBLIC "-//W3C//DTD SVG 20010904//EN"
 "http://www.w3.org/TR/2001/REC-SVG-20010904/DTD/svg10.dtd">
<svg version="1.0" xmlns="http://www.w3.org/2000/svg"
 width="853.000000pt" height="1280.000000pt" viewBox="0 0 853.000000 1280.000000"
 preserveAspectRatio="xMidYMid meet">
<metadata>
Created by potrace 1.15, written by Peter Selinger 2001-2017
</metadata>
<g transform="translate(0.000000,1280.000000) scale(0.100000,-0.100000)"
fill="#000000" stroke="none">
<path d="M4045 11319 c-44 -5 -110 -18 -147 -29 -101 -30 -102 -36 -93 -279 5
-146 11 -204 23 -226 13 -26 14 -76 9 -385 -8 -475 -35 -1372 -47 -1595 -20
-350 -55 -433 -271 -646 -203 -200 -353 -481 -420 -788 -21 -94 -22 -122 -30
-1591 -5 -822 -12 -1920 -17 -2440 -7 -993 1 -2234 17 -2382 13 -121 39 -169
127 -236 109 -82 205 -129 359 -175 66 -19 99 -21 590 -24 556 -5 645 0 814
43 117 29 264 99 318 152 48 47 108 162 122 234 6 33 12 589 15 1468 3 778 11
1741 17 2140 6 399 12 1186 13 1750 1 963 0 1030 -18 1110 -65 300 -176 512
-360 690 -102 98 -175 188 -225 277 -61 108 -70 194 -81 843 -5 294 -15 719
-21 944 -12 451 -8 548 26 616 20 42 22 58 21 230 -1 114 -6 195 -13 211 -13
31 -77 64 -149 79 -69 14 -483 21 -579 9z"/>
</g>
</svg>
